<svg width="22" height="16" viewBox="0 0 22 16" fill="none" xmlns="http://www.w3.org/2000/svg">
<path d="M10.999 7.75C13.067 7.75 14.749 6.067 14.749 4C14.749 1.933 13.067 0.25 10.999 0.25C8.93103 0.25 7.24903 1.933 7.24903 4C7.24903 6.067 8.93103 7.75 10.999 7.75ZM17.499 9.333C19.038 9.333 20.291 8.081 20.291 6.542C20.291 5.003 19.038 3.75 17.499 3.75C15.96 3.75 14.707 5.003 14.707 6.542C14.707 8.081 15.96 9.333 17.499 9.333ZM4.49903 9.333C6.03803 9.333 7.29103 8.081 7.29103 6.542C7.29103 5.003 6.03803 3.75 4.49903 3.75C2.96003 3.75 1.70703 5.003 1.70703 6.542C1.70703 8.081 2.96003 9.333 4.49903 9.333Z" fill="white"/>
<path d="M11 8.25C9.47501 8.25 8.01247 8.8558 6.93414 9.93414C5.8558 11.0125 5.25 12.475 5.25 14V15C5.25 15.414 5.586 15.75 6 15.75H16C16.1989 15.75 16.3897 15.671 16.5303 15.5303C16.671 15.3897 16.75 15.1989 16.75 15V14C16.75 12.475 16.1442 11.0125 15.0659 9.93414C13.9875 8.8558 12.525 8.25 11 8.25Z" fill="white"/>
<path d="M4.5 10.25C3.37324 10.2513 2.293 10.6995 1.49626 11.4963C0.699515 12.293 0.251323 13.3732 0.25 14.5C0.25 15.189 0.811 15.75 1.5 15.75H4.27C3.93136 15.2291 3.75076 14.6213 3.75 14C3.75 12.634 4.137 11.359 4.796 10.268C4.698 10.261 4.6 10.25 4.5 10.25ZM17.5 10.25C17.4 10.25 17.302 10.261 17.204 10.268C17.8874 11.3929 18.2492 12.6837 18.25 14C18.25 14.646 18.056 15.244 17.73 15.75H20.5C21.189 15.75 21.75 15.189 21.75 14.5C21.7487 13.3732 21.3005 12.293 20.5037 11.4963C19.707 10.6995 18.6268 10.2513 17.5 10.25Z" fill="white"/>
</svg>
